<?xml version="1.0" encoding="utf-8" standalone="no"?>
<!DOCTYPE svg PUBLIC "-//W3C//DTD SVG 1.1//EN"
  "http://www.w3.org/Graphics/SVG/1.1/DTD/svg11.dtd">
<svg xmlns:xlink="http://www.w3.org/1999/xlink" width="1000.8pt" height="496.8pt" viewBox="0 0 1000.8 496.8" xmlns="http://www.w3.org/2000/svg" version="1.1">
 <metadata>
  <rdf:RDF xmlns:dc="http://purl.org/dc/elements/1.1/" xmlns:cc="http://creativecommons.org/ns#" xmlns:rdf="http://www.w3.org/1999/02/22-rdf-syntax-ns#">
   <cc:Work>
    <dc:type rdf:resource="http://purl.org/dc/dcmitype/StillImage"/>
    <dc:date>2025-09-18T03:42:13.605476</dc:date>
    <dc:format>image/svg+xml</dc:format>
    <dc:creator>
     <cc:Agent>
      <dc:title>Matplotlib v3.6.3, https://matplotlib.org/</dc:title>
     </cc:Agent>
    </dc:creator>
   </cc:Work>
  </rdf:RDF>
 </metadata>
 <defs>
  <style type="text/css">*{stroke-linejoin: round; stroke-linecap: butt}</style>
 </defs>
 <g id="figure_1">
  <g id="patch_1">
   <path d="M 0 496.8 
L 1000.8 496.8 
L 1000.8 0 
L 0 0 
z
" style="fill: #ffffff"/>
  </g>
  <g id="axes_1">
   <g id="patch_2">
    <path d="M 77.657143 215.321143 
L 218.571429 215.321143 
Q 219.980571 215.321143 219.980571 213.942857 
L 219.980571 158.811429 
Q 219.980571 157.433143 218.571429 157.433143 
L 77.657143 157.433143 
Q 76.248 157.433143 76.248 158.811429 
L 76.248 213.942857 
Q 76.248 215.321143 77.657143 215.321143 
z
" clip-path="url(#paf7f28e4e3)" style="fill: #a8dadc; stroke: #457b9d; stroke-width: 1.2; stroke-linejoin: miter"/>
   </g>
   <g id="patch_3">
    <path d="M 289.028571 215.321143 
L 429.942857 215.321143 
Q 431.352 215.321143 431.352 213.942857 
L 431.352 158.811429 
Q 431.352 157.433143 429.942857 157.433143 
L 289.028571 157.433143 
Q 287.619429 157.433143 287.619429 158.811429 
L 287.619429 213.942857 
Q 287.619429 215.321143 289.028571 215.321143 
z
" clip-path="url(#paf7f28e4e3)" style="fill: #a8dadc; stroke: #457b9d; stroke-width: 1.2; stroke-linejoin: miter"/>
   </g>
   <g id="patch_4">
    <path d="M 500.4 160.189714 
L 641.314286 160.189714 
Q 642.723429 160.189714 642.723429 158.811429 
L 642.723429 76.114286 
Q 642.723429 74.736 641.314286 74.736 
L 500.4 74.736 
Q 498.990857 74.736 498.990857 76.114286 
L 498.990857 158.811429 
Q 498.990857 160.189714 500.4 160.189714 
z
" clip-path="url(#paf7f28e4e3)" style="fill: #a8dadc; stroke: #457b9d; stroke-width: 1.2; stroke-linejoin: miter"/>
   </g>
   <g id="patch_5">
    <path d="M 711.771429 215.321143 
L 852.685714 215.321143 
Q 854.094857 215.321143 854.094857 213.942857 
L 854.094857 158.811429 
Q 854.094857 157.433143 852.685714 157.433143 
L 711.771429 157.433143 
Q 710.362286 157.433143 710.362286 158.811429 
L 710.362286 213.942857 
Q 710.362286 215.321143 711.771429 215.321143 
z
" clip-path="url(#paf7f28e4e3)" style="fill: #a8dadc; stroke: #457b9d; stroke-width: 1.2; stroke-linejoin: miter"/>
   </g>
   <g id="patch_6">
    <path d="M 887.914286 215.321143 
L 1028.828571 215.321143 
Q 1030.237714 215.321143 1030.237714 213.942857 
L 1030.237714 158.811429 
Q 1030.237714 157.433143 1028.828571 157.433143 
L 887.914286 157.433143 
Q 886.505143 157.433143 886.505143 158.811429 
L 886.505143 213.942857 
Q 886.505143 215.321143 887.914286 215.321143 
z
" clip-path="url(#paf7f28e4e3)" style="fill: #a8dadc; stroke: #457b9d; stroke-width: 1.2; stroke-linejoin: miter"/>
   </g>
   <g id="patch_7">
    <path d="M 887.914286 353.149714 
L 1028.828571 353.149714 
Q 1030.237714 353.149714 1030.237714 351.771429 
L 1030.237714 296.64 
Q 1030.237714 295.261714 1028.828571 295.261714 
L 887.914286 295.261714 
Q 886.505143 295.261714 886.505143 296.64 
L 886.505143 351.771429 
Q 886.505143 353.149714 887.914286 353.149714 
z
" clip-path="url(#paf7f28e4e3)" style="fill: #a8dadc; stroke: #457b9d; stroke-width: 1.2; stroke-linejoin: miter"/>
   </g>
   <g id="patch_8">
    <path d="M 77.657143 353.149714 
L 218.571429 353.149714 
Q 219.980571 353.149714 219.980571 351.771429 
L 219.980571 296.64 
Q 219.980571 295.261714 218.571429 295.261714 
L 77.657143 295.261714 
Q 76.248 295.261714 76.248 296.64 
L 76.248 351.771429 
Q 76.248 353.149714 77.657143 353.149714 
z
" clip-path="url(#paf7f28e4e3)" style="fill: #a8dadc; stroke: #457b9d; stroke-width: 1.2; stroke-linejoin: miter"/>
   </g>
   <g id="text_1">
    <!-- Input Text -->
    <g style="fill: #333333" transform="translate(125.930692 183.821565) scale(0.09 -0.09)">
     <defs>
      <path id="DejaVuSans-49" d="M 628 4666 
L 1259 4666 
L 1259 0 
L 628 0 
L 628 4666 
z
" transform="scale(0.015625)"/>
      <path id="DejaVuSans-6e" d="M 3513 2113 
L 3513 0 
L 2938 0 
L 2938 2094 
Q 2938 2591 2744 2837 
Q 2550 3084 2163 3084 
Q 1697 3084 1428 2787 
Q 1159 2491 1159 1978 
L 1159 0 
L 581 0 
L 581 3500 
L 1159 3500 
L 1159 2956 
Q 1366 3272 1645 3428 
Q 1925 3584 2291 3584 
Q 2894 3584 3203 3211 
Q 3513 2838 3513 2113 
z
" transform="scale(0.015625)"/>
      <path id="DejaVuSans-70" d="M 1159 525 
L 1159 -1331 
L 581 -1331 
L 581 3500 
L 1159 3500 
L 1159 2969 
Q 1341 3281 1617 3432 
Q 1894 3584 2278 3584 
Q 2916 3584 3314 3078 
Q 3713 2572 3713 1747 
Q 3713 922 3314 415 
Q 2916 -91 2278 -91 
Q 1894 -91 1617 61 
Q 1341 213 1159 525 
z
M 3116 1747 
Q 3116 2381 2855 2742 
Q 2594 3103 2138 3103 
Q 1681 3103 1420 2742 
Q 1159 2381 1159 1747 
Q 1159 1113 1420 752 
Q 1681 391 2138 391 
Q 2594 391 2855 752 
Q 3116 1113 3116 1747 
z
" transform="scale(0.015625)"/>
      <path id="DejaVuSans-75" d="M 544 1381 
L 544 3500 
L 1119 3500 
L 1119 1403 
Q 1119 906 1312 657 
Q 1506 409 1894 409 
Q 2359 409 2629 706 
Q 2900 1003 2900 1516 
L 2900 3500 
L 3475 3500 
L 3475 0 
L 2900 0 
L 2900 538 
Q 2691 219 2414 64 
Q 2138 -91 1772 -91 
Q 1169 -91 856 284 
Q 544 659 544 1381 
z
M 1991 3584 
L 1991 3584 
z
" transform="scale(0.015625)"/>
      <path id="DejaVuSans-74" d="M 1172 4494 
L 1172 3500 
L 2356 3500 
L 2356 3053 
L 1172 3053 
L 1172 1153 
Q 1172 725 1289 603 
Q 1406 481 1766 481 
L 2356 481 
L 2356 0 
L 1766 0 
Q 1100 0 847 248 
Q 594 497 594 1153 
L 594 3053 
L 172 3053 
L 172 3500 
L 594 3500 
L 594 4494 
L 1172 4494 
z
" transform="scale(0.015625)"/>
      <path id="DejaVuSans-20" transform="scale(0.015625)"/>
      <path id="DejaVuSans-54" d="M -19 4666 
L 3928 4666 
L 3928 4134 
L 2272 4134 
L 2272 0 
L 1638 0 
L 1638 4134 
L -19 4134 
L -19 4666 
z
" transform="scale(0.015625)"/>
      <path id="DejaVuSans-65" d="M 3597 1894 
L 3597 1613 
L 953 1613 
Q 991 1019 1311 708 
Q 1631 397 2203 397 
Q 2534 397 2845 478 
Q 3156 559 3463 722 
L 3463 178 
Q 3153 47 2828 -22 
Q 2503 -91 2169 -91 
Q 1331 -91 842 396 
Q 353 884 353 1716 
Q 353 2575 817 3079 
Q 1281 3584 2069 3584 
Q 2775 3584 3186 3129 
Q 3597 2675 3597 1894 
z
M 3022 2063 
Q 3016 2534 2758 2815 
Q 2500 3097 2075 3097 
Q 1594 3097 1305 2825 
Q 1016 2553 972 2059 
L 3022 2063 
z
" transform="scale(0.015625)"/>
      <path id="DejaVuSans-78" d="M 3513 3500 
L 2247 1797 
L 3578 0 
L 2900 0 
L 1881 1375 
L 863 0 
L 184 0 
L 1544 1831 
L 300 3500 
L 978 3500 
L 1906 2253 
L 2834 3500 
L 3513 3500 
z
" transform="scale(0.015625)"/>
     </defs>
     <use xlink:href="#DejaVuSans-49"/>
     <use xlink:href="#DejaVuSans-6e" x="29.492188"/>
     <use xlink:href="#DejaVuSans-70" x="92.871094"/>
     <use xlink:href="#DejaVuSans-75" x="156.347656"/>
     <use xlink:href="#DejaVuSans-74" x="219.726562"/>
     <use xlink:href="#DejaVuSans-20" x="258.935547"/>
     <use xlink:href="#DejaVuSans-54" x="290.722656"/>
     <use xlink:href="#DejaVuSans-65" x="334.806641"/>
     <use xlink:href="#DejaVuSans-78" x="394.580078"/>
     <use xlink:href="#DejaVuSans-74" x="453.759766"/>
    </g>
    <!-- Sequence -->
    <g style="fill: #333333" transform="translate(125.915926 193.899596) scale(0.09 -0.09)">
     <defs>
      <path id="DejaVuSans-53" d="M 3425 4513 
L 3425 3897 
Q 3066 4069 2747 4153 
Q 2428 4238 2131 4238 
Q 1616 4238 1336 4038 
Q 1056 3838 1056 3469 
Q 1056 3159 1242 3001 
Q 1428 2844 1947 2747 
L 2328 2669 
Q 3034 2534 3370 2195 
Q 3706 1856 3706 1288 
Q 3706 609 3251 259 
Q 2797 -91 1919 -91 
Q 1588 -91 1214 -16 
Q 841 59 441 206 
L 441 856 
Q 825 641 1194 531 
Q 1563 422 1919 422 
Q 2459 422 2753 634 
Q 3047 847 3047 1241 
Q 3047 1584 2836 1778 
Q 2625 1972 2144 2069 
L 1759 2144 
Q 1053 2284 737 2584 
Q 422 2884 422 3419 
Q 422 4038 858 4394 
Q 1294 4750 2059 4750 
Q 2388 4750 2728 4690 
Q 3069 4631 3425 4513 
z
" transform="scale(0.015625)"/>
      <path id="DejaVuSans-71" d="M 947 1747 
Q 947 1113 1208 752 
Q 1469 391 1925 391 
Q 2381 391 2643 752 
Q 2906 1113 2906 1747 
Q 2906 2381 2643 2742 
Q 2381 3103 1925 3103 
Q 1469 3103 1208 2742 
Q 947 2381 947 1747 
z
M 2906 525 
Q 2725 213 2448 61 
Q 2172 -91 1784 -91 
Q 1150 -91 751 415 
Q 353 922 353 1747 
Q 353 2572 751 3078 
Q 1150 3584 1784 3584 
Q 2172 3584 2448 3432 
Q 2725 3281 2906 2969 
L 2906 3500 
L 3481 3500 
L 3481 -1331 
L 2906 -1331 
L 2906 525 
z
" transform="scale(0.015625)"/>
      <path id="DejaVuSans-63" d="M 3122 3366 
L 3122 2828 
Q 2878 2963 2633 3030 
Q 2388 3097 2138 3097 
Q 1578 3097 1268 2742 
Q 959 2388 959 1747 
Q 959 1106 1268 751 
Q 1578 397 2138 397 
Q 2388 397 2633 464 
Q 2878 531 3122 666 
L 3122 134 
Q 2881 22 2623 -34 
Q 2366 -91 2075 -91 
Q 1284 -91 818 406 
Q 353 903 353 1747 
Q 353 2603 823 3093 
Q 1294 3584 2113 3584 
Q 2378 3584 2631 3529 
Q 2884 3475 3122 3366 
z
" transform="scale(0.015625)"/>
     </defs>
     <use xlink:href="#DejaVuSans-53"/>
     <use xlink:href="#DejaVuSans-65" x="63.476562"/>
     <use xlink:href="#DejaVuSans-71" x="125"/>
     <use xlink:href="#DejaVuSans-75" x="188.476562"/>
     <use xlink:href="#DejaVuSans-65" x="251.855469"/>
     <use xlink:href="#DejaVuSans-6e" x="313.378906"/>
     <use xlink:href="#DejaVuSans-63" x="376.757812"/>
     <use xlink:href="#DejaVuSans-65" x="431.738281"/>
    </g>
   </g>
   <g id="text_2">
    <!-- Positional Encoding -->
    <g style="fill: #333333" transform="translate(315.791417 183.821565) scale(0.09 -0.09)">
     <defs>
      <path id="DejaVuSans-50" d="M 1259 4147 
L 1259 2394 
L 2053 2394 
Q 2494 2394 2734 2622 
Q 2975 2850 2975 3272 
Q 2975 3691 2734 3919 
Q 2494 4147 2053 4147 
L 1259 4147 
z
M 628 4666 
L 2053 4666 
Q 2838 4666 3239 4311 
Q 3641 3956 3641 3272 
Q 3641 2581 3239 2228 
Q 2838 1875 2053 1875 
L 1259 1875 
L 1259 0 
L 628 0 
L 628 4666 
z
" transform="scale(0.015625)"/>
      <path id="DejaVuSans-6f" d="M 1959 3097 
Q 1497 3097 1228 2736 
Q 959 2375 959 1747 
Q 959 1119 1226 758 
Q 1494 397 1959 397 
Q 2419 397 2687 759 
Q 2956 1122 2956 1747 
Q 2956 2369 2687 2733 
Q 2419 3097 1959 3097 
z
M 1959 3584 
Q 2709 3584 3137 3096 
Q 3566 2609 3566 1747 
Q 3566 888 3137 398 
Q 2709 -91 1959 -91 
Q 1206 -91 779 398 
Q 353 888 353 1747 
Q 353 2609 779 3096 
Q 1206 3584 1959 3584 
z
" transform="scale(0.015625)"/>
      <path id="DejaVuSans-73" d="M 2834 3397 
L 2834 2853 
Q 2591 2978 2328 3040 
Q 2066 3103 1784 3103 
Q 1356 3103 1142 2972 
Q 928 2841 928 2578 
Q 928 2378 1081 2264 
Q 1234 2150 1697 2047 
L 1894 2003 
Q 2506 1872 2764 1633 
Q 3022 1394 3022 966 
Q 3022 478 2636 193 
Q 2250 -91 1575 -91 
Q 1294 -91 989 -36 
Q 684 19 347 128 
L 347 722 
Q 666 556 975 473 
Q 1284 391 1588 391 
Q 1994 391 2212 530 
Q 2431 669 2431 922 
Q 2431 1156 2273 1281 
Q 2116 1406 1581 1522 
L 1381 1569 
Q 847 1681 609 1914 
Q 372 2147 372 2553 
Q 372 3047 722 3315 
Q 1072 3584 1716 3584 
Q 2034 3584 2315 3537 
Q 2597 3491 2834 3397 
z
" transform="scale(0.015625)"/>
      <path id="DejaVuSans-69" d="M 603 3500 
L 1178 3500 
L 1178 0 
L 603 0 
L 603 3500 
z
M 603 4863 
L 1178 4863 
L 1178 4134 
L 603 4134 
L 603 4863 
z
" transform="scale(0.015625)"/>
      <path id="DejaVuSans-61" d="M 2194 1759 
Q 1497 1759 1228 1600 
Q 959 1441 959 1056 
Q 959 750 1161 570 
Q 1363 391 1709 391 
Q 2188 391 2477 730 
Q 2766 1069 2766 1631 
L 2766 1759 
L 2194 1759 
z
M 3341 1997 
L 3341 0 
L 2766 0 
L 2766 531 
Q 2569 213 2275 61 
Q 1981 -91 1556 -91 
Q 1019 -91 701 211 
Q 384 513 384 1019 
Q 384 1609 779 1909 
Q 1175 2209 1959 2209 
L 2766 2209 
L 2766 2266 
Q 2766 2663 2505 2880 
Q 2244 3097 1772 3097 
Q 1472 3097 1187 3025 
Q 903 2953 641 2809 
L 641 3341 
Q 956 3463 1253 3523 
Q 1550 3584 1831 3584 
Q 2591 3584 2966 3190 
Q 3341 2797 3341 1997 
z
" transform="scale(0.015625)"/>
      <path id="DejaVuSans-6c" d="M 603 4863 
L 1178 4863 
L 1178 0 
L 603 0 
L 603 4863 
z
" transform="scale(0.015625)"/>
      <path id="DejaVuSans-45" d="M 628 4666 
L 3578 4666 
L 3578 4134 
L 1259 4134 
L 1259 2753 
L 3481 2753 
L 3481 2222 
L 1259 2222 
L 1259 531 
L 3634 531 
L 3634 0 
L 628 0 
L 628 4666 
z
" transform="scale(0.015625)"/>
      <path id="DejaVuSans-64" d="M 2906 2969 
L 2906 4863 
L 3481 4863 
L 3481 0 
L 2906 0 
L 2906 525 
Q 2725 213 2448 61 
Q 2172 -91 1784 -91 
Q 1150 -91 751 415 
Q 353 922 353 1747 
Q 353 2572 751 3078 
Q 1150 3584 1784 3584 
Q 2172 3584 2448 3432 
Q 2725 3281 2906 2969 
z
M 947 1747 
Q 947 1113 1208 752 
Q 1469 391 1925 391 
Q 2381 391 2643 752 
Q 2906 1113 2906 1747 
Q 2906 2381 2643 2742 
Q 2381 3103 1925 3103 
Q 1469 3103 1208 2742 
Q 947 2381 947 1747 
z
" transform="scale(0.015625)"/>
      <path id="DejaVuSans-67" d="M 2906 1791 
Q 2906 2416 2648 2759 
Q 2391 3103 1925 3103 
Q 1463 3103 1205 2759 
Q 947 2416 947 1791 
Q 947 1169 1205 825 
Q 1463 481 1925 481 
Q 2391 481 2648 825 
Q 2906 1169 2906 1791 
z
M 3481 434 
Q 3481 -459 3084 -895 
Q 2688 -1331 1869 -1331 
Q 1566 -1331 1297 -1286 
Q 1028 -1241 775 -1147 
L 775 -588 
Q 1028 -725 1275 -790 
Q 1522 -856 1778 -856 
Q 2344 -856 2625 -561 
Q 2906 -266 2906 331 
L 2906 616 
Q 2728 306 2450 153 
Q 2172 0 1784 0 
Q 1141 0 747 490 
Q 353 981 353 1791 
Q 353 2603 747 3093 
Q 1141 3584 1784 3584 
Q 2172 3584 2450 3431 
Q 2728 3278 2906 2969 
L 2906 3500 
L 3481 3500 
L 3481 434 
z
" transform="scale(0.015625)"/>
     </defs>
     <use xlink:href="#DejaVuSans-50"/>
     <use xlink:href="#DejaVuSans-6f" x="56.677734"/>
     <use xlink:href="#DejaVuSans-73" x="117.859375"/>
     <use xlink:href="#DejaVuSans-69" x="169.958984"/>
     <use xlink:href="#DejaVuSans-74" x="197.742188"/>
     <use xlink:href="#DejaVuSans-69" x="236.951172"/>
     <use xlink:href="#DejaVuSans-6f" x="264.734375"/>
     <use xlink:href="#DejaVuSans-6e" x="325.916016"/>
     <use xlink:href="#DejaVuSans-61" x="389.294922"/>
     <use xlink:href="#DejaVuSans-6c" x="450.574219"/>
     <use xlink:href="#DejaVuSans-20" x="478.357422"/>
     <use xlink:href="#DejaVuSans-45" x="510.144531"/>
     <use xlink:href="#DejaVuSans-6e" x="573.328125"/>
     <use xlink:href="#DejaVuSans-63" x="636.707031"/>
     <use xlink:href="#DejaVuSans-6f" x="691.6875"/>
     <use xlink:href="#DejaVuSans-64" x="752.869141"/>
     <use xlink:href="#DejaVuSans-69" x="816.345703"/>
     <use xlink:href="#DejaVuSans-6e" x="844.128906"/>
     <use xlink:href="#DejaVuSans-67" x="907.507812"/>
    </g>
    <!-- &amp; Embeddings -->
    <g style="fill: #333333" transform="translate(326.677199 193.899596) scale(0.09 -0.09)">
     <defs>
      <path id="DejaVuSans-26" d="M 1556 2509 
Q 1272 2256 1139 2004 
Q 1006 1753 1006 1478 
Q 1006 1022 1337 719 
Q 1669 416 2169 416 
Q 2466 416 2725 514 
Q 2984 613 3213 813 
L 1556 2509 
z
M 1997 2859 
L 3584 1234 
Q 3769 1513 3872 1830 
Q 3975 2147 3994 2503 
L 4575 2503 
Q 4538 2091 4375 1687 
Q 4213 1284 3922 891 
L 4794 0 
L 4006 0 
L 3559 459 
Q 3234 181 2878 45 
Q 2522 -91 2113 -91 
Q 1359 -91 881 339 
Q 403 769 403 1441 
Q 403 1841 612 2192 
Q 822 2544 1241 2853 
Q 1091 3050 1012 3245 
Q 934 3441 934 3628 
Q 934 4134 1281 4442 
Q 1628 4750 2203 4750 
Q 2463 4750 2720 4694 
Q 2978 4638 3244 4525 
L 3244 3956 
Q 2972 4103 2725 4179 
Q 2478 4256 2266 4256 
Q 1938 4256 1733 4082 
Q 1528 3909 1528 3634 
Q 1528 3475 1620 3314 
Q 1713 3153 1997 2859 
z
" transform="scale(0.015625)"/>
      <path id="DejaVuSans-6d" d="M 3328 2828 
Q 3544 3216 3844 3400 
Q 4144 3584 4550 3584 
Q 5097 3584 5394 3201 
Q 5691 2819 5691 2113 
L 5691 0 
L 5113 0 
L 5113 2094 
Q 5113 2597 4934 2840 
Q 4756 3084 4391 3084 
Q 3944 3084 3684 2787 
Q 3425 2491 3425 1978 
L 3425 0 
L 2847 0 
L 2847 2094 
Q 2847 2600 2669 2842 
Q 2491 3084 2119 3084 
Q 1678 3084 1418 2786 
Q 1159 2488 1159 1978 
L 1159 0 
L 581 0 
L 581 3500 
L 1159 3500 
L 1159 2956 
Q 1356 3278 1631 3431 
Q 1906 3584 2284 3584 
Q 2666 3584 2933 3390 
Q 3200 3197 3328 2828 
z
" transform="scale(0.015625)"/>
      <path id="DejaVuSans-62" d="M 3116 1747 
Q 3116 2381 2855 2742 
Q 2594 3103 2138 3103 
Q 1681 3103 1420 2742 
Q 1159 2381 1159 1747 
Q 1159 1113 1420 752 
Q 1681 391 2138 391 
Q 2594 391 2855 752 
Q 3116 1113 3116 1747 
z
M 1159 2969 
Q 1341 3281 1617 3432 
Q 1894 3584 2278 3584 
Q 2916 3584 3314 3078 
Q 3713 2572 3713 1747 
Q 3713 922 3314 415 
Q 2916 -91 2278 -91 
Q 1894 -91 1617 61 
Q 1341 213 1159 525 
L 1159 0 
L 581 0 
L 581 4863 
L 1159 4863 
L 1159 2969 
z
" transform="scale(0.015625)"/>
     </defs>
     <use xlink:href="#DejaVuSans-26"/>
     <use xlink:href="#DejaVuSans-20" x="77.978516"/>
     <use xlink:href="#DejaVuSans-45" x="109.765625"/>
     <use xlink:href="#DejaVuSans-6d" x="172.949219"/>
     <use xlink:href="#DejaVuSans-62" x="270.361328"/>
     <use xlink:href="#DejaVuSans-65" x="333.837891"/>
     <use xlink:href="#DejaVuSans-64" x="395.361328"/>
     <use xlink:href="#DejaVuSans-64" x="458.837891"/>
     <use xlink:href="#DejaVuSans-69" x="522.314453"/>
     <use xlink:href="#DejaVuSans-6e" x="550.097656"/>
     <use xlink:href="#DejaVuSans-67" x="613.476562"/>
     <use xlink:href="#DejaVuSans-73" x="676.953125"/>
    </g>
   </g>
   <g id="text_3">
    <!-- Self-Attention Layer -->
    <g style="fill: #333333" transform="translate(526.376752 114.907279) scale(0.09 -0.09)">
     <defs>
      <path id="DejaVuSans-66" d="M 2375 4863 
L 2375 4384 
L 1825 4384 
Q 1516 4384 1395 4259 
Q 1275 4134 1275 3809 
L 1275 3500 
L 2222 3500 
L 2222 3053 
L 1275 3053 
L 1275 0 
L 697 0 
L 697 3053 
L 147 3053 
L 147 3500 
L 697 3500 
L 697 3744 
Q 697 4328 969 4595 
Q 1241 4863 1831 4863 
L 2375 4863 
z
" transform="scale(0.015625)"/>
      <path id="DejaVuSans-2d" d="M 313 2009 
L 1997 2009 
L 1997 1497 
L 313 1497 
L 313 2009 
z
" transform="scale(0.015625)"/>
      <path id="DejaVuSans-41" d="M 2188 4044 
L 1331 1722 
L 3047 1722 
L 2188 4044 
z
M 1831 4666 
L 2547 4666 
L 4325 0 
L 3669 0 
L 3244 1197 
L 1141 1197 
L 716 0 
L 50 0 
L 1831 4666 
z
" transform="scale(0.015625)"/>
      <path id="DejaVuSans-4c" d="M 628 4666 
L 1259 4666 
L 1259 531 
L 3531 531 
L 3531 0 
L 628 0 
L 628 4666 
z
" transform="scale(0.015625)"/>
      <path id="DejaVuSans-79" d="M 2059 -325 
Q 1816 -950 1584 -1140 
Q 1353 -1331 966 -1331 
L 506 -1331 
L 506 -850 
L 844 -850 
Q 1081 -850 1212 -737 
Q 1344 -625 1503 -206 
L 1606 56 
L 191 3500 
L 800 3500 
L 1894 763 
L 2988 3500 
L 3597 3500 
L 2059 -325 
z
" transform="scale(0.015625)"/>
      <path id="DejaVuSans-72" d="M 2631 2963 
Q 2534 3019 2420 3045 
Q 2306 3072 2169 3072 
Q 1681 3072 1420 2755 
Q 1159 2438 1159 1844 
L 1159 0 
L 581 0 
L 581 3500 
L 1159 3500 
L 1159 2956 
Q 1341 3275 1631 3429 
Q 1922 3584 2338 3584 
Q 2397 3584 2469 3576 
Q 2541 3569 2628 3553 
L 2631 2963 
z
" transform="scale(0.015625)"/>
     </defs>
     <use xlink:href="#DejaVuSans-53"/>
     <use xlink:href="#DejaVuSans-65" x="63.476562"/>
     <use xlink:href="#DejaVuSans-6c" x="125"/>
     <use xlink:href="#DejaVuSans-66" x="152.783203"/>
     <use xlink:href="#DejaVuSans-2d" x="182.488281"/>
     <use xlink:href="#DejaVuSans-41" x="216.322266"/>
     <use xlink:href="#DejaVuSans-74" x="282.980469"/>
     <use xlink:href="#DejaVuSans-74" x="322.189453"/>
     <use xlink:href="#DejaVuSans-65" x="361.398438"/>
     <use xlink:href="#DejaVuSans-6e" x="422.921875"/>
     <use xlink:href="#DejaVuSans-74" x="486.300781"/>
     <use xlink:href="#DejaVuSans-69" x="525.509766"/>
     <use xlink:href="#DejaVuSans-6f" x="553.292969"/>
     <use xlink:href="#DejaVuSans-6e" x="614.474609"/>
     <use xlink:href="#DejaVuSans-20" x="677.853516"/>
     <use xlink:href="#DejaVuSans-4c" x="709.640625"/>
     <use xlink:href="#DejaVuSans-61" x="765.353516"/>
     <use xlink:href="#DejaVuSans-79" x="826.632812"/>
     <use xlink:href="#DejaVuSans-65" x="885.8125"/>
     <use xlink:href="#DejaVuSans-72" x="947.335938"/>
    </g>
    <!-- (Query, Key, Value → Output) -->
    <g style="fill: #333333" transform="translate(505.169799 124.98531) scale(0.09 -0.09)">
     <defs>
      <path id="DejaVuSans-28" d="M 1984 4856 
Q 1566 4138 1362 3434 
Q 1159 2731 1159 2009 
Q 1159 1288 1364 580 
Q 1569 -128 1984 -844 
L 1484 -844 
Q 1016 -109 783 600 
Q 550 1309 550 2009 
Q 550 2706 781 3412 
Q 1013 4119 1484 4856 
L 1984 4856 
z
" transform="scale(0.015625)"/>
      <path id="DejaVuSans-51" d="M 2522 4238 
Q 1834 4238 1429 3725 
Q 1025 3213 1025 2328 
Q 1025 1447 1429 934 
Q 1834 422 2522 422 
Q 3209 422 3611 934 
Q 4013 1447 4013 2328 
Q 4013 3213 3611 3725 
Q 3209 4238 2522 4238 
z
M 3406 84 
L 4238 -825 
L 3475 -825 
L 2784 -78 
Q 2681 -84 2626 -87 
Q 2572 -91 2522 -91 
Q 1538 -91 948 567 
Q 359 1225 359 2328 
Q 359 3434 948 4092 
Q 1538 4750 2522 4750 
Q 3503 4750 4090 4092 
Q 4678 3434 4678 2328 
Q 4678 1516 4351 937 
Q 4025 359 3406 84 
z
" transform="scale(0.015625)"/>
      <path id="DejaVuSans-2c" d="M 750 794 
L 1409 794 
L 1409 256 
L 897 -744 
L 494 -744 
L 750 256 
L 750 794 
z
" transform="scale(0.015625)"/>
      <path id="DejaVuSans-4b" d="M 628 4666 
L 1259 4666 
L 1259 2694 
L 3353 4666 
L 4166 4666 
L 1850 2491 
L 4331 0 
L 3500 0 
L 1259 2247 
L 1259 0 
L 628 0 
L 628 4666 
z
" transform="scale(0.015625)"/>
      <path id="DejaVuSans-56" d="M 1831 0 
L 50 4666 
L 709 4666 
L 2188 738 
L 3669 4666 
L 4325 4666 
L 2547 0 
L 1831 0 
z
" transform="scale(0.015625)"/>
      <path id="DejaVuSans-2192" d="M 5050 2147 
L 5050 1866 
L 3822 638 
L 3447 1013 
L 4175 1741 
L 366 1741 
L 366 2272 
L 4175 2272 
L 3447 3000 
L 3822 3375 
L 5050 2147 
z
" transform="scale(0.015625)"/>
      <path id="DejaVuSans-4f" d="M 2522 4238 
Q 1834 4238 1429 3725 
Q 1025 3213 1025 2328 
Q 1025 1447 1429 934 
Q 1834 422 2522 422 
Q 3209 422 3611 934 
Q 4013 1447 4013 2328 
Q 4013 3213 3611 3725 
Q 3209 4238 2522 4238 
z
M 2522 4750 
Q 3503 4750 4090 4092 
Q 4678 3434 4678 2328 
Q 4678 1225 4090 567 
Q 3503 -91 2522 -91 
Q 1538 -91 948 565 
Q 359 1222 359 2328 
Q 359 3434 948 4092 
Q 1538 4750 2522 4750 
z
" transform="scale(0.015625)"/>
      <path id="DejaVuSans-29" d="M 513 4856 
L 1013 4856 
Q 1481 4119 1714 3412 
Q 1947 2706 1947 2009 
Q 1947 1309 1714 600 
Q 1481 -109 1013 -844 
L 513 -844 
Q 928 -128 1133 580 
Q 1338 1288 1338 2009 
Q 1338 2731 1133 3434 
Q 928 4138 513 4856 
z
" transform="scale(0.015625)"/>
     </defs>
     <use xlink:href="#DejaVuSans-28"/>
     <use xlink:href="#DejaVuSans-51" x="39.013672"/>
     <use xlink:href="#DejaVuSans-75" x="117.724609"/>
     <use xlink:href="#DejaVuSans-65" x="181.103516"/>
     <use xlink:href="#DejaVuSans-72" x="242.626953"/>
     <use xlink:href="#DejaVuSans-79" x="283.740234"/>
     <use xlink:href="#DejaVuSans-2c" x="342.919922"/>
     <use xlink:href="#DejaVuSans-20" x="374.707031"/>
     <use xlink:href="#DejaVuSans-4b" x="406.494141"/>
     <use xlink:href="#DejaVuSans-65" x="467.070312"/>
     <use xlink:href="#DejaVuSans-79" x="528.59375"/>
     <use xlink:href="#DejaVuSans-2c" x="587.773438"/>
     <use xlink:href="#DejaVuSans-20" x="619.560547"/>
     <use xlink:href="#DejaVuSans-56" x="651.347656"/>
     <use xlink:href="#DejaVuSans-61" x="712.005859"/>
     <use xlink:href="#DejaVuSans-6c" x="773.285156"/>
     <use xlink:href="#DejaVuSans-75" x="801.068359"/>
     <use xlink:href="#DejaVuSans-65" x="864.447266"/>
     <use xlink:href="#DejaVuSans-20" x="925.970703"/>
     <use xlink:href="#DejaVuSans-2192" x="957.757812"/>
     <use xlink:href="#DejaVuSans-20" x="1041.546875"/>
     <use xlink:href="#DejaVuSans-4f" x="1073.333984"/>
     <use xlink:href="#DejaVuSans-75" x="1152.044922"/>
     <use xlink:href="#DejaVuSans-74" x="1215.423828"/>
     <use xlink:href="#DejaVuSans-70" x="1254.632812"/>
     <use xlink:href="#DejaVuSans-75" x="1318.109375"/>
     <use xlink:href="#DejaVuSans-74" x="1381.488281"/>
     <use xlink:href="#DejaVuSans-29" x="1420.697266"/>
    </g>
   </g>
   <g id="text_4">
    <!-- Feed Forward -->
    <g style="fill: #333333" transform="translate(751.968884 183.821565) scale(0.09 -0.09)">
     <defs>
      <path id="DejaVuSans-46" d="M 628 4666 
L 3309 4666 
L 3309 4134 
L 1259 4134 
L 1259 2759 
L 3109 2759 
L 3109 2228 
L 1259 2228 
L 1259 0 
L 628 0 
L 628 4666 
z
" transform="scale(0.015625)"/>
      <path id="DejaVuSans-77" d="M 269 3500 
L 844 3500 
L 1563 769 
L 2278 3500 
L 2956 3500 
L 3675 769 
L 4391 3500 
L 4966 3500 
L 4050 0 
L 3372 0 
L 2619 2869 
L 1863 0 
L 1184 0 
L 269 3500 
z
" transform="scale(0.015625)"/>
     </defs>
     <use xlink:href="#DejaVuSans-46"/>
     <use xlink:href="#DejaVuSans-65" x="52.019531"/>
     <use xlink:href="#DejaVuSans-65" x="113.542969"/>
     <use xlink:href="#DejaVuSans-64" x="175.066406"/>
     <use xlink:href="#DejaVuSans-20" x="238.542969"/>
     <use xlink:href="#DejaVuSans-46" x="270.330078"/>
     <use xlink:href="#DejaVuSans-6f" x="324.224609"/>
     <use xlink:href="#DejaVuSans-72" x="385.40625"/>
     <use xlink:href="#DejaVuSans-77" x="426.519531"/>
     <use xlink:href="#DejaVuSans-61" x="508.306641"/>
     <use xlink:href="#DejaVuSans-72" x="569.585938"/>
     <use xlink:href="#DejaVuSans-64" x="608.949219"/>
    </g>
    <!-- Network (FFN) -->
    <g style="fill: #333333" transform="translate(749.955134 193.899596) scale(0.09 -0.09)">
     <defs>
      <path id="DejaVuSans-4e" d="M 628 4666 
L 1478 4666 
L 3547 763 
L 3547 4666 
L 4159 4666 
L 4159 0 
L 3309 0 
L 1241 3903 
L 1241 0 
L 628 0 
L 628 4666 
z
" transform="scale(0.015625)"/>
      <path id="DejaVuSans-6b" d="M 581 4863 
L 1159 4863 
L 1159 1991 
L 2875 3500 
L 3609 3500 
L 1753 1863 
L 3688 0 
L 2938 0 
L 1159 1709 
L 1159 0 
L 581 0 
L 581 4863 
z
" transform="scale(0.015625)"/>
     </defs>
     <use xlink:href="#DejaVuSans-4e"/>
     <use xlink:href="#DejaVuSans-65" x="74.804688"/>
     <use xlink:href="#DejaVuSans-74" x="136.328125"/>
     <use xlink:href="#DejaVuSans-77" x="175.537109"/>
     <use xlink:href="#DejaVuSans-6f" x="257.324219"/>
     <use xlink:href="#DejaVuSans-72" x="318.505859"/>
     <use xlink:href="#DejaVuSans-6b" x="359.619141"/>
     <use xlink:href="#DejaVuSans-20" x="417.529297"/>
     <use xlink:href="#DejaVuSans-28" x="449.316406"/>
     <use xlink:href="#DejaVuSans-46" x="488.330078"/>
     <use xlink:href="#DejaVuSans-46" x="545.849609"/>
     <use xlink:href="#DejaVuSans-4e" x="603.369141"/>
     <use xlink:href="#DejaVuSans-29" x="678.173828"/>
    </g>
   </g>
   <g id="text_5">
    <!-- Softmax -->
    <g style="fill: #333333" transform="translate(939.687288 183.821565) scale(0.09 -0.09)">
     <use xlink:href="#DejaVuSans-53"/>
     <use xlink:href="#DejaVuSans-6f" x="63.476562"/>
     <use xlink:href="#DejaVuSans-66" x="124.658203"/>
     <use xlink:href="#DejaVuSans-74" x="158.113281"/>
     <use xlink:href="#DejaVuSans-6d" x="197.322266"/>
     <use xlink:href="#DejaVuSans-61" x="294.734375"/>
     <use xlink:href="#DejaVuSans-78" x="356.013672"/>
    </g>
    <!-- Prediction -->
    <g style="fill: #333333" transform="translate(936.018382 193.899596) scale(0.09 -0.09)">
     <use xlink:href="#DejaVuSans-50"/>
     <use xlink:href="#DejaVuSans-72" x="58.552734"/>
     <use xlink:href="#DejaVuSans-65" x="97.416016"/>
     <use xlink:href="#DejaVuSans-64" x="158.939453"/>
     <use xlink:href="#DejaVuSans-69" x="222.416016"/>
     <use xlink:href="#DejaVuSans-63" x="250.199219"/>
     <use xlink:href="#DejaVuSans-74" x="305.179688"/>
     <use xlink:href="#DejaVuSans-69" x="344.388672"/>
     <use xlink:href="#DejaVuSans-6f" x="372.171875"/>
     <use xlink:href="#DejaVuSans-6e" x="433.353516"/>
    </g>
   </g>
   <g id="text_6">
    <!-- Output -->
    <g style="fill: #333333" transform="translate(942.740257 321.650136) scale(0.09 -0.09)">
     <use xlink:href="#DejaVuSans-4f"/>
     <use xlink:href="#DejaVuSans-75" x="78.710938"/>
     <use xlink:href="#DejaVuSans-74" x="142.089844"/>
     <use xlink:href="#DejaVuSans-70" x="181.298828"/>
     <use xlink:href="#DejaVuSans-75" x="244.775391"/>
     <use xlink:href="#DejaVuSans-74" x="308.154297"/>
    </g>
    <!-- Sequence -->
    <g style="fill: #333333" transform="translate(936.173069 331.728167) scale(0.09 -0.09)">
     <use xlink:href="#DejaVuSans-53"/>
     <use xlink:href="#DejaVuSans-65" x="63.476562"/>
     <use xlink:href="#DejaVuSans-71" x="125"/>
     <use xlink:href="#DejaVuSans-75" x="188.476562"/>
     <use xlink:href="#DejaVuSans-65" x="251.855469"/>
     <use xlink:href="#DejaVuSans-6e" x="313.378906"/>
     <use xlink:href="#DejaVuSans-63" x="376.757812"/>
     <use xlink:href="#DejaVuSans-65" x="431.738281"/>
    </g>
   </g>
   <g id="text_7">
    <!-- New Input -->
    <g style="fill: #333333" transform="translate(125.216317 321.650136) scale(0.09 -0.09)">
     <use xlink:href="#DejaVuSans-4e"/>
     <use xlink:href="#DejaVuSans-65" x="74.804688"/>
     <use xlink:href="#DejaVuSans-77" x="136.328125"/>
     <use xlink:href="#DejaVuSans-20" x="218.115234"/>
     <use xlink:href="#DejaVuSans-49" x="249.902344"/>
     <use xlink:href="#DejaVuSans-6e" x="279.394531"/>
     <use xlink:href="#DejaVuSans-70" x="342.773438"/>
     <use xlink:href="#DejaVuSans-75" x="406.25"/>
     <use xlink:href="#DejaVuSans-74" x="469.628906"/>
    </g>
    <!-- Sequence -->
    <g style="fill: #333333" transform="translate(125.915926 331.728167) scale(0.09 -0.09)">
     <use xlink:href="#DejaVuSans-53"/>
     <use xlink:href="#DejaVuSans-65" x="63.476562"/>
     <use xlink:href="#DejaVuSans-71" x="125"/>
     <use xlink:href="#DejaVuSans-75" x="188.476562"/>
     <use xlink:href="#DejaVuSans-65" x="251.855469"/>
     <use xlink:href="#DejaVuSans-6e" x="313.378906"/>
     <use xlink:href="#DejaVuSans-63" x="376.757812"/>
     <use xlink:href="#DejaVuSans-65" x="431.738281"/>
    </g>
   </g>
   <g id="patch_9">
    <path d="M 283.507981 186.377143 
Q 252.040466 186.377143 221.914593 186.377143 
" style="fill: none; stroke: #000000; stroke-width: 1.2; stroke-linecap: round"/>
    <path d="M 225.914593 188.377143 
L 221.914593 186.377143 
L 225.914593 184.377143 
" style="fill: none; stroke: #000000; stroke-width: 1.2; stroke-linecap: round"/>
   </g>
   <g id="patch_10">
    <path d="M 495.026482 159.573591 
Q 463.40825 172.595006 433.030574 185.105521 
" style="fill: none; stroke: #000000; stroke-width: 1.2; stroke-linecap: round"/>
    <path d="M 437.490805 185.431619 
L 433.030574 185.105521 
L 435.967592 181.732995 
" style="fill: none; stroke: #000000; stroke-width: 1.2; stroke-linecap: round"/>
   </g>
   <g id="patch_11">
    <path d="M 706.250838 186.377143 
Q 674.783324 186.377143 644.65745 186.377143 
" style="fill: none; stroke: #000000; stroke-width: 1.2; stroke-linecap: round"/>
    <path d="M 648.65745 188.377143 
L 644.65745 186.377143 
L 648.65745 184.377143 
" style="fill: none; stroke: #000000; stroke-width: 1.2; stroke-linecap: round"/>
   </g>
   <g id="patch_12">
    <path d="M 882.39047 186.377143 
Q 865.013401 186.377143 848.977974 186.377143 
" style="fill: none; stroke: #000000; stroke-width: 1.2; stroke-linecap: round"/>
    <path d="M 852.977974 188.377143 
L 848.977974 186.377143 
L 852.977974 184.377143 
" style="fill: none; stroke: #000000; stroke-width: 1.2; stroke-linecap: round"/>
   </g>
   <g id="patch_13">
    <path d="M 958.371429 322.203566 
Q 958.371429 269.072628 958.371429 217.28333 
" style="fill: none; stroke: #000000; stroke-width: 1.2; stroke-linecap: round"/>
    <path d="M 956.371429 221.28333 
L 958.371429 217.28333 
L 960.371429 221.28333 
" style="fill: none; stroke: #000000; stroke-width: 1.2; stroke-linecap: round"/>
   </g>
   <g id="patch_14">
    <path d="M 148.114286 229.724918 
Q 148.114286 275.966244 148.114286 320.865929 
" style="fill: none; stroke-dasharray: 1.2,1.98; stroke-dashoffset: 0; stroke: #000000; stroke-width: 1.2; stroke-linecap: round"/>
    <path d="M 150.114286 316.865929 
L 148.114286 320.865929 
L 146.114286 316.865929 
" style="fill: none; stroke-dasharray: 1.2,1.98; stroke-dashoffset: 0; stroke: #000000; stroke-width: 1.2; stroke-linecap: round"/>
   </g>
   <g id="text_8">
    <!-- Output from Layer N goes to Layer N+1 -->
    <g style="fill: #1d3557" transform="translate(435.834821 34.765714) scale(0.1 -0.1)">
     <defs>
      <path id="DejaVuSans-2b" d="M 2944 4013 
L 2944 2272 
L 4684 2272 
L 4684 1741 
L 2944 1741 
L 2944 0 
L 2419 0 
L 2419 1741 
L 678 1741 
L 678 2272 
L 2419 2272 
L 2419 4013 
L 2944 4013 
z
" transform="scale(0.015625)"/>
      <path id="DejaVuSans-31" d="M 794 531 
L 1825 531 
L 1825 4091 
L 703 3866 
L 703 4441 
L 1819 4666 
L 2450 4666 
L 2450 531 
L 3481 531 
L 3481 0 
L 794 0 
L 794 531 
z
" transform="scale(0.015625)"/>
     </defs>
     <use xlink:href="#DejaVuSans-4f"/>
     <use xlink:href="#DejaVuSans-75" x="78.710938"/>
     <use xlink:href="#DejaVuSans-74" x="142.089844"/>
     <use xlink:href="#DejaVuSans-70" x="181.298828"/>
     <use xlink:href="#DejaVuSans-75" x="244.775391"/>
     <use xlink:href="#DejaVuSans-74" x="308.154297"/>
     <use xlink:href="#DejaVuSans-20" x="347.363281"/>
     <use xlink:href="#DejaVuSans-66" x="379.150391"/>
     <use xlink:href="#DejaVuSans-72" x="414.355469"/>
     <use xlink:href="#DejaVuSans-6f" x="453.21875"/>
     <use xlink:href="#DejaVuSans-6d" x="514.400391"/>
     <use xlink:href="#DejaVuSans-20" x="611.8125"/>
     <use xlink:href="#DejaVuSans-4c" x="643.599609"/>
     <use xlink:href="#DejaVuSans-61" x="699.3125"/>
     <use xlink:href="#DejaVuSans-79" x="760.591797"/>
     <use xlink:href="#DejaVuSans-65" x="819.771484"/>
     <use xlink:href="#DejaVuSans-72" x="881.294922"/>
     <use xlink:href="#DejaVuSans-20" x="922.408203"/>
     <use xlink:href="#DejaVuSans-4e" x="954.195312"/>
     <use xlink:href="#DejaVuSans-20" x="1029"/>
     <use xlink:href="#DejaVuSans-67" x="1060.787109"/>
     <use xlink:href="#DejaVuSans-6f" x="1124.263672"/>
     <use xlink:href="#DejaVuSans-65" x="1185.445312"/>
     <use xlink:href="#DejaVuSans-73" x="1246.96875"/>
     <use xlink:href="#DejaVuSans-20" x="1299.068359"/>
     <use xlink:href="#DejaVuSans-74" x="1330.855469"/>
     <use xlink:href="#DejaVuSans-6f" x="1370.064453"/>
     <use xlink:href="#DejaVuSans-20" x="1431.246094"/>
     <use xlink:href="#DejaVuSans-4c" x="1463.033203"/>
     <use xlink:href="#DejaVuSans-61" x="1518.746094"/>
     <use xlink:href="#DejaVuSans-79" x="1580.025391"/>
     <use xlink:href="#DejaVuSans-65" x="1639.205078"/>
     <use xlink:href="#DejaVuSans-72" x="1700.728516"/>
     <use xlink:href="#DejaVuSans-20" x="1741.841797"/>
     <use xlink:href="#DejaVuSans-4e" x="1773.628906"/>
     <use xlink:href="#DejaVuSans-2b" x="1848.433594"/>
     <use xlink:href="#DejaVuSans-31" x="1932.222656"/>
    </g>
   </g>
   <g id="text_9">
    <!-- Autoregressive Loop: Previous outputs feed into next prediction -->
    <g style="fill: #1d3557" transform="translate(341.094531 434.468571) scale(0.1 -0.1)">
     <defs>
      <path id="DejaVuSans-76" d="M 191 3500 
L 800 3500 
L 1894 563 
L 2988 3500 
L 3597 3500 
L 2284 0 
L 1503 0 
L 191 3500 
z
" transform="scale(0.015625)"/>
      <path id="DejaVuSans-3a" d="M 750 794 
L 1409 794 
L 1409 0 
L 750 0 
L 750 794 
z
M 750 3309 
L 1409 3309 
L 1409 2516 
L 750 2516 
L 750 3309 
z
" transform="scale(0.015625)"/>
     </defs>
     <use xlink:href="#DejaVuSans-41"/>
     <use xlink:href="#DejaVuSans-75" x="68.408203"/>
     <use xlink:href="#DejaVuSans-74" x="131.787109"/>
     <use xlink:href="#DejaVuSans-6f" x="170.996094"/>
     <use xlink:href="#DejaVuSans-72" x="232.177734"/>
     <use xlink:href="#DejaVuSans-65" x="271.041016"/>
     <use xlink:href="#DejaVuSans-67" x="332.564453"/>
     <use xlink:href="#DejaVuSans-72" x="396.041016"/>
     <use xlink:href="#DejaVuSans-65" x="434.904297"/>
     <use xlink:href="#DejaVuSans-73" x="496.427734"/>
     <use xlink:href="#DejaVuSans-73" x="548.527344"/>
     <use xlink:href="#DejaVuSans-69" x="600.626953"/>
     <use xlink:href="#DejaVuSans-76" x="628.410156"/>
     <use xlink:href="#DejaVuSans-65" x="687.589844"/>
     <use xlink:href="#DejaVuSans-20" x="749.113281"/>
     <use xlink:href="#DejaVuSans-4c" x="780.900391"/>
     <use xlink:href="#DejaVuSans-6f" x="834.863281"/>
     <use xlink:href="#DejaVuSans-6f" x="896.044922"/>
     <use xlink:href="#DejaVuSans-70" x="957.226562"/>
     <use xlink:href="#DejaVuSans-3a" x="1020.703125"/>
     <use xlink:href="#DejaVuSans-20" x="1054.394531"/>
     <use xlink:href="#DejaVuSans-50" x="1086.181641"/>
     <use xlink:href="#DejaVuSans-72" x="1144.734375"/>
     <use xlink:href="#DejaVuSans-65" x="1183.597656"/>
     <use xlink:href="#DejaVuSans-76" x="1245.121094"/>
     <use xlink:href="#DejaVuSans-69" x="1304.300781"/>
     <use xlink:href="#DejaVuSans-6f" x="1332.083984"/>
     <use xlink:href="#DejaVuSans-75" x="1393.265625"/>
     <use xlink:href="#DejaVuSans-73" x="1456.644531"/>
     <use xlink:href="#DejaVuSans-20" x="1508.744141"/>
     <use xlink:href="#DejaVuSans-6f" x="1540.53125"/>
     <use xlink:href="#DejaVuSans-75" x="1601.712891"/>
     <use xlink:href="#DejaVuSans-74" x="1665.091797"/>
     <use xlink:href="#DejaVuSans-70" x="1704.300781"/>
     <use xlink:href="#DejaVuSans-75" x="1767.777344"/>
     <use xlink:href="#DejaVuSans-74" x="1831.15625"/>
     <use xlink:href="#DejaVuSans-73" x="1870.365234"/>
     <use xlink:href="#DejaVuSans-20" x="1922.464844"/>
     <use xlink:href="#DejaVuSans-66" x="1954.251953"/>
     <use xlink:href="#DejaVuSans-65" x="1989.457031"/>
     <use xlink:href="#DejaVuSans-65" x="2050.980469"/>
     <use xlink:href="#DejaVuSans-64" x="2112.503906"/>
     <use xlink:href="#DejaVuSans-20" x="2175.980469"/>
     <use xlink:href="#DejaVuSans-69" x="2207.767578"/>
     <use xlink:href="#DejaVuSans-6e" x="2235.550781"/>
     <use xlink:href="#DejaVuSans-74" x="2298.929688"/>
     <use xlink:href="#DejaVuSans-6f" x="2338.138672"/>
     <use xlink:href="#DejaVuSans-20" x="2399.320312"/>
     <use xlink:href="#DejaVuSans-6e" x="2431.107422"/>
     <use xlink:href="#DejaVuSans-65" x="2494.486328"/>
     <use xlink:href="#DejaVuSans-78" x="2554.259766"/>
     <use xlink:href="#DejaVuSans-74" x="2613.439453"/>
     <use xlink:href="#DejaVuSans-20" x="2652.648438"/>
     <use xlink:href="#DejaVuSans-70" x="2684.435547"/>
     <use xlink:href="#DejaVuSans-72" x="2747.912109"/>
     <use xlink:href="#DejaVuSans-65" x="2786.775391"/>
     <use xlink:href="#DejaVuSans-64" x="2848.298828"/>
     <use xlink:href="#DejaVuSans-69" x="2911.775391"/>
     <use xlink:href="#DejaVuSans-63" x="2939.558594"/>
     <use xlink:href="#DejaVuSans-74" x="2994.539062"/>
     <use xlink:href="#DejaVuSans-69" x="3033.748047"/>
     <use xlink:href="#DejaVuSans-6f" x="3061.53125"/>
     <use xlink:href="#DejaVuSans-6e" x="3122.712891"/>
    </g>
   </g>
  </g>
 </g>
 <defs>
  <clipPath id="paf7f28e4e3">
   <rect x="7.2" y="7.2" width="986.4" height="482.4"/>
  </clipPath>
 </defs>
</svg>
